<?xml version="1.0" encoding="UTF-8"?>
<!-- Generated by Pixelmator Pro 3.6.17 -->
<svg width="2048" height="2048" viewBox="0 0 2048 2048" xmlns="http://www.w3.org/2000/svg">
    <g id="Group">
        <linearGradient id="linearGradient1" x1="1024" y1="0" x2="1024" y2="2048" gradientUnits="userSpaceOnUse">
            <stop offset="1e-05" stop-color="#23186d" stop-opacity="1"/>
            <stop offset="1" stop-color="#1b1b4d" stop-opacity="1"/>
        </linearGradient>
        <filter id="filter1" x="0" y="0" width="2048" height="2048" filterUnits="userSpaceOnUse" primitiveUnits="userSpaceOnUse" color-interpolation-filters="sRGB">
            <feFlood flood-color="#000000" flood-opacity="0.091334"/>
            <feComposite in2="SourceGraphic" operator="out"/>
            <feGaussianBlur stdDeviation="101.536936"/>
            <feOffset dx="0" dy="39.599405"/>
            <feComposite in2="SourceGraphic" operator="atop"/>
        </filter>
        <path id="Rectangle" fill="url(#linearGradient1)" fill-rule="evenodd" stroke="none" filter="url(#filter1)" d="M 0 2048 L 2048 2048 L 2048 0 L 0 0 Z"/>
        <linearGradient id="linearGradient2" x1="1024" y1="446.999999" x2="1024" y2="1506.999999" gradientUnits="userSpaceOnUse">
            <stop offset="1e-05" stop-color="#b395f6" stop-opacity="1"/>
            <stop offset="1" stop-color="#8f5bf2" stop-opacity="1"/>
        </linearGradient>
        <filter id="filter2" x="0" y="0" width="2048" height="2048" filterUnits="userSpaceOnUse" primitiveUnits="userSpaceOnUse" color-interpolation-filters="sRGB">
            <feGaussianBlur stdDeviation="21.322757"/>
            <feOffset dx="0" dy="5.076847" result="offsetblur"/>
            <feFlood flood-color="#000000" flood-opacity="0.200872"/>
            <feComposite in2="offsetblur" operator="in"/>
            <feMerge>
                <feMergeNode/>
                <feMergeNode in="SourceGraphic"/>
            </feMerge>
        </filter>
        <path id="Star" fill="url(#linearGradient2)" fill-rule="evenodd" stroke="none" filter="url(#filter2)" d="M 1024 447 L 891.338135 794.406494 L 519.940063 813.221069 L 809.348633 1046.744629 L 712.473816 1405.779053 L 1024 1202.697754 L 1335.526123 1405.779053 L 1238.651367 1046.744629 L 1528.059937 813.221069 L 1156.661865 794.406494 Z"/>
        <linearGradient id="linearGradient3" x1="1023.999999" y1="1499.961113" x2="1023.999999" y2="2047.986282" gradientUnits="userSpaceOnUse">
            <stop offset="1e-05" stop-color="#b395f6" stop-opacity="1"/>
            <stop offset="1" stop-color="#8f5bf2" stop-opacity="1"/>
        </linearGradient>
        <filter id="filter3" x="0" y="0" width="2048" height="2048" filterUnits="userSpaceOnUse" primitiveUnits="userSpaceOnUse" color-interpolation-filters="sRGB">
            <feGaussianBlur stdDeviation="30.461081"/>
            <feOffset dx="0" dy="2.030739" result="offsetblur"/>
            <feFlood flood-color="#000000" flood-opacity="0.198147"/>
            <feComposite in2="offsetblur" operator="in"/>
            <feMerge>
                <feMergeNode/>
                <feMergeNode in="SourceGraphic"/>
            </feMerge>
        </filter>
        <path id="Path" fill="url(#linearGradient3)" fill-rule="evenodd" stroke="none" filter="url(#filter3)" d="M 0 1802.390381 C 0 1802.390381 181.554001 1671.406372 440.68573 1704.433472 C 699.817383 1737.460449 709.593445 1667.035767 885.028564 1549.180786 C 939.413391 1512.645752 984.220276 1499.148193 1023.790649 1499.998779 L 1024 1499.998779 C 1063.570313 1499.148193 1108.377197 1512.645752 1162.762085 1549.180786 C 1338.197388 1667.035767 1347.973267 1737.460449 1607.104858 1704.433472 C 1866.236572 1671.406372 2047.790649 1802.390381 2047.790649 1802.390381 L 2048 2047.986328 L 0 2047.986328 L 0 1802.390381 Z"/>
    </g>
</svg>
